  0
SECTION
  2
HEADER
  9
$ACADVER
  1
AC1015
  9
$ACADMAINTVER
 70
     6
  9
$DWGCODEPAGE
  3
ANSI_1252
  9
$INSBASE
 10
0.0
 20
0.0
 30
0.0
  9
$EXTMIN
 10
0.0
 20
0.0
 30
0.0
  9
$EXTMAX
 10
1.189
 20
0.841
 30
0.0
  9
$LIMMIN
 10
0.0
 20
0.0
  9
$LIMMAX
 10
1.189
 20
0.841
  9
$ORTHOMODE
 70
     0
  9
$REGENMODE
 70
     1
  9
$FILLMODE
 70
     1
  9
$QTEXTMODE
 70
     0
  9
$MIRRTEXT
 70
     1
  9
$LTSCALE
 40
1.0
  9
$ATTMODE
 70
     1
  9
$TEXTSIZE
 40
0.0035
  9
$TRACEWID
 40
1.0
  9
$TEXTSTYLE
  7
Standard
  9
$CLAYER
  8
0
  9
$CELTYPE
  6
ByLayer
  9
$CECOLOR
 62
   256
  9
$CELTSCALE
 40
1.0
  9
$DISPSILH
 70
     0
  9
$DIMSCALE
 40
1.0
  9
$DIMASZ
 40
0.003302
  9
$DIMEXO
 40
0.001
  9
$DIMDLI
 40
3.75
  9
$DIMRND
 40
0.0
  9
$DIMDLE
 40
0.0
  9
$DIMEXE
 40
0.001
  9
$DIMTP
 40
0.0
  9
$DIMTM
 40
0.0
  9
$DIMTXT
 40
0.0035
  9
$DIMCEN
 40
2.5
  9
$DIMTSZ
 40
0.0
  9
$DIMTOL
 70
     0
  9
$DIMLIM
 70
     0
  9
$DIMTIH
 70
     1
  9
$DIMTOH
 70
     1
  9
$DIMSE1
 70
     0
  9
$DIMSE2
 70
     0
  9
$DIMTAD
 70
     1
  9
$DIMZIN
 70
     1
  9
$DIMBLK
  1

  9
$DIMASO
 70
     1
  9
$DIMSHO
 70
     1
  9
$DIMPOST
  1

  9
$DIMAPOST
  1

  9
$DIMALT
 70
     0
  9
$DIMALTD
 70
     3
  9
$DIMALTF
 40
39.3700787402
  9
$DIMLFAC
 40
0.5
  9
$DIMTOFL
 70
     1
  9
$DIMTVP
 40
0.0
  9
$DIMTIX
 70
     0
  9
$DIMSOXD
 70
     0
  9
$DIMSAH
 70
     0
  9
$DIMBLK1
  1

  9
$DIMBLK2
  1

  9
$DIMSTYLE
  2
ISO-25
  9
$DIMCLRD
 70
     0
  9
$DIMCLRE
 70
     0
  9
$DIMCLRT
 70
     0
  9
$DIMTFAC
 40
1.0
  9
$DIMGAP
 40
0.001524
  9
$DIMJUST
 70
     0
  9
$DIMSD1
 70
     0
  9
$DIMSD2
 70
     0
  9
$DIMTOLJ
 70
     0
  9
$DIMTZIN
 70
     1
  9
$DIMALTZ
 70
     0
  9
$DIMALTTZ
 70
     0
  9
$DIMUPT
 70
     0
  9
$DIMDEC
 70
     3
  9
$DIMTDEC
 70
     3
  9
$DIMALTU
 70
     2
  9
$DIMALTTD
 70
     3
  9
$DIMTXSTY
  7
Standard
  9
$DIMAUNIT
 70
     0
  9
$DIMADEC
 70
     2
  9
$DIMALTRND
 40
0.0
  9
$DIMAZIN
 70
     0
  9
$DIMDSEP
 70
    44
  9
$DIMATFIT
 70
     3
  9
$DIMFRAC
 70
     0
  9
$DIMLDRBLK
  1

  9
$DIMLUNIT
 70
     2
  9
$DIMLWD
 70
    -2
  9
$DIMLWE
 70
    -2
  9
$DIMTMOVE
 70
     0
  9
$LUNITS
 70
     2
  9
$LUPREC
 70
     2
  9
$SKETCHINC
 40
1.0
  9
$FILLETRAD
 40
10.0
  9
$AUNITS
 70
     0
  9
$AUPREC
 70
     2
  9
$MENU
  1
.
  9
$ELEVATION
 40
0.0
  9
$PELEVATION
 40
0.0
  9
$THICKNESS
 40
0.0
  9
$LIMCHECK
 70
     0
  9
$CHAMFERA
 40
10.0
  9
$CHAMFERB
 40
10.0
  9
$CHAMFERC
 40
20.0
  9
$CHAMFERD
 40
0.0
  9
$SKPOLY
 70
     0
  9
$TDCREATE
 40
2456772.72568294
  9
$TDUCREATE
 40
2456773.017349606
  9
$TDUPDATE
 40
2456772.725682952
  9
$TDUUPDATE
 40
2456773.017349618
  9
$TDINDWG
 40
0.0000000116
  9
$TDUSRTIMER
 40
0.0000000116
  9
$USRTIMER
 70
     1
  9
$ANGBASE
 50
0.0
  9
$ANGDIR
 70
     0
  9
$PDMODE
 70
     0
  9
$PDSIZE
 40
-1.0
  9
$PLINEWID
 40
0.0
  9
$SPLFRAME
 70
     0
  9
$SPLINETYPE
 70
     6
  9
$SPLINESEGS
 70
     8
  9
$HANDSEED
  5
9E
  9
$SURFTAB1
 70
     6
  9
$SURFTAB2
 70
     6
  9
$SURFTYPE
 70
     6
  9
$SURFU
 70
     6
  9
$SURFV
 70
     6
  9
$UCSBASE
  2

  9
$UCSNAME
  2

  9
$UCSORG
 10
0.0
 20
0.0
 30
0.0
  9
$UCSXDIR
 10
1.0
 20
0.0
 30
0.0
  9
$UCSYDIR
 10
0.0
 20
1.0
 30
0.0
  9
$UCSORTHOREF
  2

  9
$UCSORTHOVIEW
 70
     0
  9
$UCSORGTOP
 10
0.0
 20
0.0
 30
0.0
  9
$UCSORGBOTTOM
 10
0.0
 20
0.0
 30
0.0
  9
$UCSORGLEFT
 10
0.0
 20
0.0
 30
0.0
  9
$UCSORGRIGHT
 10
0.0
 20
0.0
 30
0.0
  9
$UCSORGFRONT
 10
0.0
 20
0.0
 30
0.0
  9
$UCSORGBACK
 10
0.0
 20
0.0
 30
0.0
  9
$PUCSBASE
  2

  9
$PUCSNAME
  2

  9
$PUCSORG
 10
0.0
 20
0.0
 30
0.0
  9
$PUCSXDIR
 10
1.0
 20
0.0
 30
0.0
  9
$PUCSYDIR
 10
0.0
 20
1.0
 30
0.0
  9
$PUCSORTHOREF
  2

  9
$PUCSORTHOVIEW
 70
     0
  9
$PUCSORGTOP
 10
0.0
 20
0.0
 30
0.0
  9
$PUCSORGBOTTOM
 10
0.0
 20
0.0
 30
0.0
  9
$PUCSORGLEFT
 10
0.0
 20
0.0
 30
0.0
  9
$PUCSORGRIGHT
 10
0.0
 20
0.0
 30
0.0
  9
$PUCSORGFRONT
 10
0.0
 20
0.0
 30
0.0
  9
$PUCSORGBACK
 10
0.0
 20
0.0
 30
0.0
  9
$USERI1
 70
     0
  9
$USERI2
 70
     0
  9
$USERI3
 70
     0
  9
$USERI4
 70
     0
  9
$USERI5
 70
     0
  9
$USERR1
 40
0.0
  9
$USERR2
 40
0.0
  9
$USERR3
 40
0.0
  9
$USERR4
 40
0.0
  9
$USERR5
 40
0.0
  9
$WORLDVIEW
 70
     1
  9
$SHADEDGE
 70
     3
  9
$SHADEDIF
 70
    70
  9
$TILEMODE
 70
     1
  9
$MAXACTVP
 70
    64
  9
$PINSBASE
 10
0.0
 20
0.0
 30
0.0
  9
$PLIMCHECK
 70
     0
  9
$PEXTMIN
 10
1.0000000000E+20
 20
1.0000000000E+20
 30
1.0000000000E+20
  9
$PEXTMAX
 10
-1.0000000000E+20
 20
-1.0000000000E+20
 30
-1.0000000000E+20
  9
$PLIMMIN
 10
0.0
 20
0.0
  9
$PLIMMAX
 10
420.0
 20
297.0
  9
$UNITMODE
 70
     0
  9
$VISRETAIN
 70
     1
  9
$PLINEGEN
 70
     0
  9
$PSLTSCALE
 70
     1
  9
$TREEDEPTH
 70
  3020
  9
$CMLSTYLE
  2
Standard
  9
$CMLJUST
 70
     0
  9
$CMLSCALE
 40
20.0
  9
$PROXYGRAPHICS
 70
     1
  9
$MEASUREMENT
 70
     1
  9
$CELWEIGHT
370
    -1
  9
$ENDCAPS
280
     0
  9
$JOINSTYLE
280
     0
  9
$LWDISPLAY
290
     1
  9
$INSUNITS
 70
     4
  9
$HYPERLINKBASE
  1

  9
$STYLESHEET
  1

  9
$XEDIT
290
     1
  9
$CEPSNTYPE
380
     0
  9
$PSTYLEMODE
290
     1
  9
$FINGERPRINTGUID
  2
{DC0A18D4-9BD4-4C73-85FF-FF933F82C719}
  9
$VERSIONGUID
  2
{FAEB1C32-E019-11D5-929B-00C0DF256EC4}
  9
$EXTNAMES
290
     1
  9
$PSVPSCALE
 40
0.0
  9
$OLESTARTUP
290
     0
  0
ENDSEC
  0
SECTION
  2
CLASSES
  0
CLASS
  1
ACDBDICTIONARYWDFLT
  2
AcDbDictionaryWithDefault
  3
ObjectDBX Classes
 90
        0
280
     0
281
     0
  0
CLASS
  1
VISUALSTYLE
  2
AcDbVisualStyle
  3
ObjectDBX Classes
 90
     4095
280
     0
281
     0
  0
CLASS
  1
MATERIAL
  2
AcDbMaterial
  3
ObjectDBX Classes
 90
     1153
280
     0
281
     0
  0
CLASS
  1
ACDBPLACEHOLDER
  2
AcDbPlaceHolder
  3
ObjectDBX Classes
 90
        0
280
     0
281
     0
  0
CLASS
  1
LAYOUT
  2
AcDbLayout
  3
ObjectDBX Classes
 90
        0
280
     0
281
     0
  0
ENDSEC
  0
SECTION
  2
TABLES
  0
TABLE
  2
VPORT
  5
8
330
0
100
AcDbSymbolTable
 70
     1
  0
VPORT
  5
29
330
8
100
AcDbSymbolTableRecord
100
AcDbViewportTableRecord
  2
*Active
 70
     0
 10
0.0
 20
0.0
 11
1.0
 21
1.0
 12
0.5945
 22
0.4205
 13
0.0
 23
0.0
 14
10.0
 24
10.0
 15
10.0
 25
10.0
 16
0.0
 26
0.0
 36
1.0
 17
0.0
 27
0.0
 37
0.0
 40
0.841
 41
1.4137931034
 42
50.0
 43
0.0
 44
0.0
 50
0.0
 51
0.0
 71
     0
 72
  2000
 73
     1
 74
     3
 75
     0
 76
     0
 77
     0
 78
     0
281
     0
 65
     1
110
0.0
120
0.0
130
0.0
111
1.0
121
0.0
131
0.0
112
0.0
122
1.0
132
0.0
 79
     0
146
0.0
  0
ENDTAB
  0
TABLE
  2
LTYPE
  5
5
330
0
100
AcDbSymbolTable
 70
     6
  0
LTYPE
  5
14
330
5
100
AcDbSymbolTableRecord
100
AcDbLinetypeTableRecord
  2
ByBlock
 70
     0
  3

 72
    65
 73
     0
 40
0.0
  0
LTYPE
  5
15
330
5
100
AcDbSymbolTableRecord
100
AcDbLinetypeTableRecord
  2
ByLayer
 70
     0
  3

 72
    65
 73
     0
 40
0.0
  0
LTYPE
  5
16
330
5
100
AcDbSymbolTableRecord
100
AcDbLinetypeTableRecord
  2
Continuous
 70
     0
  3
Solid line
 72
    65
 73
     0
 40
0.0
  0
LTYPE
  5
3F
330
5
100
AcDbSymbolTableRecord
100
AcDbLinetypeTableRecord
  2
HIDDEN
 70
     0
  3
Hidden __ __ __ __ __ __ __ __ __ __ __ __ __ __
 72
    65
 73
     2
 40
0.001905
 49
0.00127
 74
     0
 49
-0.000635
 74
     0
  0
LTYPE
  5
40
330
5
100
AcDbSymbolTableRecord
100
AcDbLinetypeTableRecord
  2
PHANTOM
 70
     0
  3
Phantom ______  __  __  ______  __  __  ______
 72
    65
 73
     6
 40
0.0127
 49
0.00635
 74
     0
 49
-0.00127
 74
     0
 49
0.00127
 74
     0
 49
-0.00127
 74
     0
 49
0.00127
 74
     0
 49
-0.00127
 74
     0
  0
LTYPE
  5
41
330
5
100
AcDbSymbolTableRecord
100
AcDbLinetypeTableRecord
  2
CENTER
 70
     0
  3
Center ____ _ ____ _ ____ _ ____ _ ____ _ ____
 72
    65
 73
     4
 40
0.01016
 49
0.00635
 74
     0
 49
-0.00127
 74
     0
 49
0.00127
 74
     0
 49
-0.00127
 74
     0
  0
LTYPE
  5
42
330
5
100
AcDbSymbolTableRecord
100
AcDbLinetypeTableRecord
  2
CENTERX2
 70
     0
  3
Center (2x) ________  __  ________  __  _____
 72
    65
 73
     4
 40
0.02032
 49
0.0127
 74
     0
 49
-0.00254
 74
     0
 49
0.00254
 74
     0
 49
-0.00254
 74
     0
  0
LTYPE
  5
43
330
5
100
AcDbSymbolTableRecord
100
AcDbLinetypeTableRecord
  2
DOT2
 70
     0
  3
Dot (.5x) ........................................
 72
    65
 73
     2
 40
0.000635
 49
0.0
 74
     0
 49
-0.000635
 74
     0
  0
ENDTAB
  0
TABLE
  2
LAYER
  5
2
330
0
100
AcDbSymbolTable
 70
     3
  0
LAYER
  5
10
330
2
100
AcDbSymbolTableRecord
100
AcDbLayerTableRecord
  2
0
 70
     0
 62
     7
  6
Continuous
370
    -3
390
F
  0
LAYER
  5
44
330
2
100
AcDbSymbolTableRecord
100
AcDbLayerTableRecord
  2
SLD-0
 70
     0
 62
   179
  6
Continuous
370
    -3
390
F
  0
LAYER
  5
45
330
2
100
AcDbSymbolTableRecord
100
AcDbLayerTableRecord
  2
FORMAT
 70
     0
 62
   179
  6
Continuous
370
    -3
390
F
  0
ENDTAB
  0
TABLE
  2
STYLE
  5
3
330
0
100
AcDbSymbolTable
 70
     1
  0
STYLE
  5
11
330
3
100
AcDbSymbolTableRecord
100
AcDbTextStyleTableRecord
  2
Standard
 70
     0
 40
0.0
 41
1.0
 50
0.0
 71
     0
 42
2.5
  3
txt
  4

  0
ENDTAB
  0
TABLE
  2
VIEW
  5
6
330
0
100
AcDbSymbolTable
 70
     0
  0
ENDTAB
  0
TABLE
  2
UCS
  5
7
330
0
100
AcDbSymbolTable
 70
     0
  0
ENDTAB
  0
TABLE
  2
APPID
  5
9
330
0
100
AcDbSymbolTable
 70
     1
  0
APPID
  5
12
330
9
100
AcDbSymbolTableRecord
100
AcDbRegAppTableRecord
  2
ACAD
 70
     0
  0
ENDTAB
  0
TABLE
  2
DIMSTYLE
  5
A
330
0
100
AcDbSymbolTable
 70
     1
100
AcDbDimStyleTable
  0
DIMSTYLE
105
27
330
A
100
AcDbSymbolTableRecord
100
AcDbDimStyleTableRecord
  2
ISO-25
 70
     0
 41
2.5
 42
0.625
 43
3.75
 44
1.25
 73
     0
 74
     0
 77
     1
 78
     8
140
2.5
141
2.5
143
0.0393700787
147
0.625
171
     3
172
     1
178
     0
271
     2
272
     2
274
     3
278
    44
283
     0
284
     8
340
11
  0
ENDTAB
  0
TABLE
  2
BLOCK_RECORD
  5
1
330
0
100
AcDbSymbolTable
 70
     1
  0
BLOCK_RECORD
  5
1F
330
1
100
AcDbSymbolTableRecord
100
AcDbBlockTableRecord
  2
*Model_Space
340
22
  0
BLOCK_RECORD
  5
1B
330
1
100
AcDbSymbolTableRecord
100
AcDbBlockTableRecord
  2
*Paper_Space
340
1E
  0
BLOCK_RECORD
  5
23
330
1
100
AcDbSymbolTableRecord
100
AcDbBlockTableRecord
  2
*Paper_Space0
340
26
  0
ENDTAB
  0
ENDSEC
  0
SECTION
  2
BLOCKS
  0
BLOCK
  5
20
330
1F
100
AcDbEntity
  8
0
100
AcDbBlockBegin
  2
*Model_Space
 70
     0
 10
0.0
 20
0.0
 30
0.0
  3
*Model_Space
  1

  0
ENDBLK
  5
21
330
1F
100
AcDbEntity
  8
0
100
AcDbBlockEnd
  0
BLOCK
  5
1C
330
1B
100
AcDbEntity
 67
     1
  8
0
100
AcDbBlockBegin
  2
*Paper_Space
 70
     0
 10
0.0
 20
0.0
 30
0.0
  3
*Paper_Space
  1

  0
ENDBLK
  5
1D
330
1B
100
AcDbEntity
 67
     1
  8
0
100
AcDbBlockEnd
  0
BLOCK
  5
24
330
23
100
AcDbEntity
  8
0
100
AcDbBlockBegin
  2
*Paper_Space0
 70
     0
 10
0.0
 20
0.0
 30
0.0
  3
*Paper_Space0
  1

  0
ENDBLK
  5
25
330
23
100
AcDbEntity
  8
0
100
AcDbBlockEnd
  0
ENDSEC
  0
SECTION
  2
ENTITIES
  0
LINE
  5
46
330
1F
100
AcDbEntity
  8
SLD-0
  6
Continuous
 62
   179
370
    15
100
AcDbLine
 10
0.3106291085
 20
0.378773647
 30
0.0
 11
0.3106291085
 21
0.4920307916
 31
0.0
  0
LINE
  5
47
330
1F
100
AcDbEntity
  8
SLD-0
  6
Continuous
 62
   179
370
    15
100
AcDbLine
 10
0.3233291085
 20
0.4920307916
 30
0.0
 11
0.3233291085
 21
0.378773647
 31
0.0
  0
LINE
  5
48
330
1F
100
AcDbEntity
  8
SLD-0
  6
Continuous
 62
   179
370
    15
100
AcDbLine
 10
0.3130020109
 20
0.5251684043
 30
0.0
 11
0.2975456079
 21
0.5406248073
 31
0.0
  0
LINE
  5
49
330
1F
100
AcDbEntity
  8
SLD-0
  6
Continuous
 62
   179
370
    15
100
AcDbLine
 10
0.3144899085
 20
0.499717647
 30
0.0
 11
0.3144899085
 21
0.5215763018
 31
0.0
  0
LINE
  5
4A
330
1F
100
AcDbEntity
  8
SLD-0
  6
Continuous
 62
   179
370
    15
100
AcDbLine
 10
0.3194683085
 20
0.5213364019
 30
0.0
 11
0.3194683085
 21
0.499717647
 31
0.0
  0
LINE
  5
4B
330
1F
100
AcDbEntity
  8
SLD-0
  6
Continuous
 62
   179
370
    15
100
AcDbLine
 10
0.3374436695
 20
0.5414159678
 30
0.0
 11
0.320956206
 21
0.5249285043
 31
0.0
  0
LINE
  5
4C
330
1F
100
AcDbEntity
  8
SLD-0
  6
Continuous
 62
   179
370
    15
100
AcDbLine
 10
0.3010658683
 20
0.5441450677
 30
0.0
 11
0.313506956
 21
0.53170398
 31
0.0
  0
LINE
  5
4D
330
1F
100
AcDbEntity
  8
SLD-0
  6
Continuous
 62
   179
370
    15
100
AcDbLine
 10
0.3206911609
 20
0.53170398
 30
0.0
 11
0.3339234091
 21
0.5449362282
 31
0.0
  0
LINE
  5
4E
330
1F
100
AcDbEntity
  8
SLD-0
  6
Continuous
 62
   179
370
    15
100
AcDbLine
 10
0.3303541085
 20
0.274673647
 30
0.0
 11
0.3036041085
 21
0.274673647
 31
0.0
  0
LINE
  5
4F
330
1F
100
AcDbEntity
  8
SLD-0
  6
Continuous
 62
   179
370
    15
100
AcDbLine
 10
0.3328541085
 20
0.373773647
 30
0.0
 11
0.3328541085
 21
0.277173647
 31
0.0
  0
LINE
  5
50
330
1F
100
AcDbEntity
  8
SLD-0
  6
Continuous
 62
   179
370
    15
100
AcDbLine
 10
0.3258291085
 20
0.376273647
 30
0.0
 11
0.3303541085
 21
0.376273647
 31
0.0
  0
LINE
  5
51
330
1F
100
AcDbEntity
  8
SLD-0
  6
Continuous
 62
   179
370
    15
100
AcDbLine
 10
0.3036041085
 20
0.376273647
 30
0.0
 11
0.3081291085
 21
0.376273647
 31
0.0
  0
LINE
  5
52
330
1F
100
AcDbEntity
  8
SLD-0
  6
Continuous
 62
   179
370
    15
100
AcDbLine
 10
0.3011041085
 20
0.277173647
 30
0.0
 11
0.3011041085
 21
0.373773647
 31
0.0
  0
LINE
  5
53
330
1F
100
AcDbEntity
  8
SLD-0
  6
Continuous
 62
   179
370
    15
100
AcDbLine
 10
0.364020154
 20
0.452012533
 30
0.0
 11
0.364020154
 21
0.3387553884
 31
0.0
  0
LINE
  5
54
330
1F
100
AcDbEntity
  8
SLD-0
  6
Continuous
 62
   179
370
    15
100
AcDbLine
 10
0.356995154
 20
0.454512533
 30
0.0
 11
0.361520154
 21
0.454512533
 31
0.0
  0
LINE
  5
55
330
1F
100
AcDbEntity
  8
SLD-0
  6
Continuous
 62
   179
370
    15
100
AcDbLine
 10
0.354495154
 20
0.553612533
 30
0.0
 11
0.354495154
 21
0.457012533
 31
0.0
  0
LINE
  5
56
330
1F
100
AcDbEntity
  8
SLD-0
  6
Continuous
 62
   179
370
    15
100
AcDbLine
 10
0.383745154
 20
0.556112533
 30
0.0
 11
0.356995154
 21
0.556112533
 31
0.0
  0
LINE
  5
57
330
1F
100
AcDbEntity
  8
SLD-0
  6
Continuous
 62
   179
370
    15
100
AcDbLine
 10
0.386245154
 20
0.457012533
 30
0.0
 11
0.386245154
 21
0.553612533
 31
0.0
  0
LINE
  5
58
330
1F
100
AcDbEntity
  8
SLD-0
  6
Continuous
 62
   179
370
    15
100
AcDbLine
 10
0.379220154
 20
0.454512533
 30
0.0
 11
0.383745154
 21
0.454512533
 31
0.0
  0
LINE
  5
59
330
1F
100
AcDbEntity
  8
SLD-0
  6
Continuous
 62
   179
370
    15
100
AcDbLine
 10
0.376720154
 20
0.3387553884
 30
0.0
 11
0.376720154
 21
0.452012533
 31
0.0
  0
LINE
  5
5A
330
1F
100
AcDbEntity
  8
SLD-0
  6
Continuous
 62
   179
370
    15
100
AcDbLine
 10
0.3936117993
 20
0.2951242434
 30
0.0
 11
0.375399354
 21
0.3056392036
 31
0.0
  0
LINE
  5
5B
330
1F
100
AcDbEntity
  8
SLD-0
  6
Continuous
 62
   179
370
    15
100
AcDbLine
 10
0.372859354
 20
0.3100386126
 30
0.0
 11
0.372859354
 21
0.331068533
 31
0.0
  0
LINE
  5
5C
330
1F
100
AcDbEntity
  8
SLD-0
  6
Continuous
 62
   179
370
    15
100
AcDbLine
 10
0.367880954
 20
0.331068533
 30
0.0
 11
0.367880954
 21
0.3100386126
 31
0.0
  0
LINE
  5
5D
330
1F
100
AcDbEntity
  8
SLD-0
  6
Continuous
 62
   179
370
    15
100
AcDbLine
 10
0.365340954
 20
0.3056392035
 30
0.0
 11
0.3471285088
 21
0.2951242434
 31
0.0
  0
LINE
  5
5E
330
1F
100
AcDbEntity
  8
SLD-0
  6
Continuous
 62
   179
370
    15
100
AcDbLine
 10
0.372910154
 20
0.3013277827
 30
0.0
 11
0.3911225992
 21
0.2908128225
 31
0.0
  0
LINE
  5
5F
330
1F
100
AcDbEntity
  8
SLD-0
  6
Continuous
 62
   179
370
    15
100
AcDbLine
 10
0.3496177088
 20
0.2908128226
 30
0.0
 11
0.367830154
 21
0.3013277827
 31
0.0
  0
LINE
  5
60
330
1F
100
AcDbEntity
  8
SLD-0
  6
Continuous
 62
   179
370
    15
100
AcDbLine
 10
0.4177592567
 20
0.3784728725
 30
0.0
 11
0.4177592567
 21
0.4917300171
 31
0.0
  0
LINE
  5
61
330
1F
100
AcDbEntity
  8
SLD-0
  6
Continuous
 62
   179
370
    15
100
AcDbLine
 10
0.4304592567
 20
0.4917300171
 30
0.0
 11
0.4304592567
 21
0.3784728725
 31
0.0
  0
LINE
  5
62
330
1F
100
AcDbEntity
  8
SLD-0
  6
Continuous
 62
   179
370
    15
100
AcDbLine
 10
0.4436570236
 20
0.5408291055
 30
0.0
 11
0.4294125575
 21
0.5265846394
 31
0.0
  0
LINE
  5
63
330
1F
100
AcDbEntity
  8
SLD-0
  6
Continuous
 62
   179
370
    15
100
AcDbLine
 10
0.4080970237
 20
0.5443646393
 30
0.0
 11
0.4223414898
 21
0.5301201733
 31
0.0
  0
LINE
  5
64
330
1F
100
AcDbEntity
  8
SLD-0
  6
Continuous
 62
   179
370
    15
100
AcDbLine
 10
0.4188059559
 20
0.5265846393
 30
0.0
 11
0.4045614898
 21
0.5408291055
 31
0.0
  0
LINE
  5
65
330
1F
100
AcDbEntity
  8
SLD-0
  6
Continuous
 62
   179
370
    15
100
AcDbLine
 10
0.4045614898
 20
0.5088046394
 30
0.0
 11
0.4188059559
 21
0.5230491055
 31
0.0
  0
LINE
  5
66
330
1F
100
AcDbEntity
  8
SLD-0
  6
Continuous
 62
   179
370
    15
100
AcDbLine
 10
0.4223414897
 20
0.5195135716
 30
0.0
 11
0.4080970236
 21
0.5052691055
 31
0.0
  0
LINE
  5
67
330
1F
100
AcDbEntity
  8
SLD-0
  6
Continuous
 62
   179
370
    15
100
AcDbLine
 10
0.4401214897
 20
0.5052691055
 30
0.0
 11
0.4258770236
 21
0.5195135716
 31
0.0
  0
LINE
  5
68
330
1F
100
AcDbEntity
  8
SLD-0
  6
Continuous
 62
   179
370
    15
100
AcDbLine
 10
0.4294125575
 20
0.5230491055
 30
0.0
 11
0.4436570236
 21
0.5088046394
 31
0.0
  0
LINE
  5
69
330
1F
100
AcDbEntity
  8
SLD-0
  6
Continuous
 62
   179
370
    15
100
AcDbLine
 10
0.4258770237
 20
0.5301201733
 30
0.0
 11
0.4401214898
 21
0.5443646394
 31
0.0
  0
LINE
  5
6A
330
1F
100
AcDbEntity
  8
SLD-0
  6
Continuous
 62
   179
370
    15
100
AcDbLine
 10
0.4374842567
 20
0.2743728725
 30
0.0
 11
0.4107342567
 21
0.2743728725
 31
0.0
  0
LINE
  5
6B
330
1F
100
AcDbEntity
  8
SLD-0
  6
Continuous
 62
   179
370
    15
100
AcDbLine
 10
0.4399842567
 20
0.3734728725
 30
0.0
 11
0.4399842567
 21
0.2768728725
 31
0.0
  0
LINE
  5
6C
330
1F
100
AcDbEntity
  8
SLD-0
  6
Continuous
 62
   179
370
    15
100
AcDbLine
 10
0.4329592567
 20
0.3759728725
 30
0.0
 11
0.4374842567
 21
0.3759728725
 31
0.0
  0
LINE
  5
6D
330
1F
100
AcDbEntity
  8
SLD-0
  6
Continuous
 62
   179
370
    15
100
AcDbLine
 10
0.4107342567
 20
0.3759728725
 30
0.0
 11
0.4152592567
 21
0.3759728725
 31
0.0
  0
LINE
  5
6E
330
1F
100
AcDbEntity
  8
SLD-0
  6
Continuous
 62
   179
370
    15
100
AcDbLine
 10
0.4082342567
 20
0.2768728725
 30
0.0
 11
0.4082342567
 21
0.3734728725
 31
0.0
  0
ARC
  5
6F
330
1F
100
AcDbEntity
  8
SLD-0
  6
Continuous
 62
   179
370
    15
100
AcDbCircle
 10
0.3081291085
 20
0.378773647
 30
0.0
 40
0.0025
100
AcDbArc
 50
270.0
 51
0.0
  0
ARC
  5
70
330
1F
100
AcDbEntity
  8
SLD-0
  6
Continuous
 62
   179
370
    15
100
AcDbCircle
 10
0.3081291085
 20
0.4920307916
 30
0.0
 40
0.0025
100
AcDbArc
 50
0.0
 51
75.0252013719
  0
ARC
  5
71
330
1F
100
AcDbEntity
  8
SLD-0
  6
Continuous
 62
   179
370
    15
100
AcDbCircle
 10
0.3169791085
 20
0.525117647
 30
0.0
 40
0.0317500000019015
100
AcDbArc
 50
284.9747986281
 51
255.0252013738
  0
ARC
  5
72
330
1F
100
AcDbEntity
  8
SLD-0
  6
Continuous
 62
   179
370
    15
100
AcDbCircle
 10
0.3258291085
 20
0.4920307916
 30
0.0
 40
0.0025000000019016
100
AcDbArc
 50
104.9747986611
 51
180.0
  0
ARC
  5
73
330
1F
100
AcDbEntity
  8
SLD-0
  6
Continuous
 62
   179
370
    15
100
AcDbCircle
 10
0.3258291085
 20
0.378773647
 30
0.0
 40
0.0025
100
AcDbArc
 50
180.0
 51
270.0
  0
ARC
  5
74
330
1F
100
AcDbEntity
  8
SLD-0
  6
Continuous
 62
   179
370
    15
100
AcDbCircle
 10
0.2993057381
 20
0.5423849375
 30
0.0
 40
0.0024892000000001
100
AcDbArc
 50
45.0
 51
225.0
  0
ARC
  5
75
330
1F
100
AcDbEntity
  8
SLD-0
  6
Continuous
 62
   179
370
    15
100
AcDbCircle
 10
0.3094099085
 20
0.5215763018
 30
0.0
 40
0.0050800000011118
100
AcDbArc
 50
0.0
 51
45.0000007975
  0
ARC
  5
76
330
1F
100
AcDbEntity
  8
SLD-0
  6
Continuous
 62
   179
370
    15
100
AcDbCircle
 10
0.3169791085
 20
0.499717647
 30
0.0
 40
0.0024892
100
AcDbArc
 50
180.0
 51
0.0
  0
ARC
  5
77
330
1F
100
AcDbEntity
  8
SLD-0
  6
Continuous
 62
   179
370
    15
100
AcDbCircle
 10
0.3245483085
 20
0.5213364019
 30
0.0
 40
0.0050800000000001
100
AcDbArc
 50
135.0
 51
180.0
  0
ARC
  5
78
330
1F
100
AcDbEntity
  8
SLD-0
  6
Continuous
 62
   179
370
    15
100
AcDbCircle
 10
0.3356835393
 20
0.543176098
 30
0.0
 40
0.0024892000029992
100
AcDbArc
 50
314.9999996212
 51
134.9999996212
  0
ARC
  5
79
330
1F
100
AcDbEntity
  8
SLD-0
  6
Continuous
 62
   179
370
    15
100
AcDbCircle
 10
0.3170990584
 20
0.5352960824
 30
0.0
 40
0.0050800000000001
100
AcDbArc
 50
225.0
 51
315.0
  0
ARC
  5
7A
330
1F
100
AcDbEntity
  8
SLD-0
  6
Continuous
 62
   179
370
    15
100
AcDbCircle
 10
0.3303541085
 20
0.277173647
 30
0.0
 40
0.0025000000000001
100
AcDbArc
 50
270.0
 51
0.0
  0
ARC
  5
7B
330
1F
100
AcDbEntity
  8
SLD-0
  6
Continuous
 62
   179
370
    15
100
AcDbCircle
 10
0.3036041085
 20
0.277173647
 30
0.0
 40
0.0025000000000001
100
AcDbArc
 50
180.0
 51
270.0
  0
ARC
  5
7C
330
1F
100
AcDbEntity
  8
SLD-0
  6
Continuous
 62
   179
370
    15
100
AcDbCircle
 10
0.3036041085
 20
0.373773647
 30
0.0
 40
0.0025000000000001
100
AcDbArc
 50
90.0
 51
180.0
  0
ARC
  5
7D
330
1F
100
AcDbEntity
  8
SLD-0
  6
Continuous
 62
   179
370
    15
100
AcDbCircle
 10
0.3303541085
 20
0.373773647
 30
0.0
 40
0.0025
100
AcDbArc
 50
0.0
 51
90.0
  0
ARC
  5
7E
330
1F
100
AcDbEntity
  8
SLD-0
  6
Continuous
 62
   179
370
    15
100
AcDbCircle
 10
0.361520154
 20
0.452012533
 30
0.0
 40
0.0025
100
AcDbArc
 50
0.0
 51
90.0
  0
ARC
  5
7F
330
1F
100
AcDbEntity
  8
SLD-0
  6
Continuous
 62
   179
370
    15
100
AcDbCircle
 10
0.356995154
 20
0.457012533
 30
0.0
 40
0.0025
100
AcDbArc
 50
180.0
 51
270.0
  0
ARC
  5
80
330
1F
100
AcDbEntity
  8
SLD-0
  6
Continuous
 62
   179
370
    15
100
AcDbCircle
 10
0.356995154
 20
0.553612533
 30
0.0
 40
0.0025000000000001
100
AcDbArc
 50
90.0
 51
180.0
  0
ARC
  5
81
330
1F
100
AcDbEntity
  8
SLD-0
  6
Continuous
 62
   179
370
    15
100
AcDbCircle
 10
0.383745154
 20
0.553612533
 30
0.0
 40
0.0025
100
AcDbArc
 50
359.9999999579
 51
89.9999999452
  0
ARC
  5
82
330
1F
100
AcDbEntity
  8
SLD-0
  6
Continuous
 62
   179
370
    15
100
AcDbCircle
 10
0.383745154
 20
0.457012533
 30
0.0
 40
0.0025
100
AcDbArc
 50
270.0
 51
0.0
  0
ARC
  5
83
330
1F
100
AcDbEntity
  8
SLD-0
  6
Continuous
 62
   179
370
    15
100
AcDbCircle
 10
0.379220154
 20
0.452012533
 30
0.0
 40
0.0025
100
AcDbArc
 50
90.0
 51
180.0
  0
ARC
  5
84
330
1F
100
AcDbEntity
  8
SLD-0
  6
Continuous
 62
   179
370
    15
100
AcDbCircle
 10
0.379220154
 20
0.3387553884
 30
0.0
 40
0.0025
100
AcDbArc
 50
180.0
 51
255.0252013719
  0
ARC
  5
85
330
1F
100
AcDbEntity
  8
SLD-0
  6
Continuous
 62
   179
370
    15
100
AcDbCircle
 10
0.361520154
 20
0.3387553884
 30
0.0
 40
0.0025000000019016
100
AcDbArc
 50
284.9747986043
 51
0.0
  0
ARC
  5
86
330
1F
100
AcDbEntity
  8
SLD-0
  6
Continuous
 62
   179
370
    15
100
AcDbCircle
 10
0.3923671992
 20
0.292968533
 30
0.0
 40
0.0024892000038672
100
AcDbArc
 50
239.999999682
 51
59.999999682
  0
ARC
  5
87
330
1F
100
AcDbEntity
  8
SLD-0
  6
Continuous
 62
   179
370
    15
100
AcDbCircle
 10
0.377939354
 20
0.3100386126
 30
0.0
 40
0.0050799999778189
100
AcDbArc
 50
180.0
 51
239.9999997111
  0
ARC
  5
88
330
1F
100
AcDbEntity
  8
SLD-0
  6
Continuous
 62
   179
370
    15
100
AcDbCircle
 10
0.370370154
 20
0.331068533
 30
0.0
 40
0.0024892
100
AcDbArc
 50
0.0
 51
180.0
  0
ARC
  5
89
330
1F
100
AcDbEntity
  8
SLD-0
  6
Continuous
 62
   179
370
    15
100
AcDbCircle
 10
0.362800954
 20
0.3100386126
 30
0.0
 40
0.00508
100
AcDbArc
 50
300.0
 51
0.0
  0
ARC
  5
8A
330
1F
100
AcDbEntity
  8
SLD-0
  6
Continuous
 62
   179
370
    15
100
AcDbCircle
 10
0.3483731088
 20
0.292968533
 30
0.0
 40
0.0024891999848012
100
AcDbArc
 50
120.000000404
 51
300.0
  0
ARC
  5
8B
330
1F
100
AcDbEntity
  8
SLD-0
  6
Continuous
 62
   179
370
    15
100
AcDbCircle
 10
0.370370154
 20
0.2969283736
 30
0.0
 40
0.00508
100
AcDbArc
 50
60.0
 51
120.0
  0
ARC
  5
8C
330
1F
100
AcDbEntity
  8
SLD-0
  6
Continuous
 62
   179
370
    15
100
AcDbCircle
 10
0.370370154
 20
0.305668533
 30
0.0
 40
0.0317500000019015
100
AcDbArc
 50
104.9747986281
 51
75.0252013738
  0
ARC
  5
8D
330
1F
100
AcDbEntity
  8
SLD-0
  6
Continuous
 62
   179
370
    15
100
AcDbCircle
 10
0.4152592567
 20
0.3784728725
 30
0.0
 40
0.0025
100
AcDbArc
 50
270.0
 51
0.0
  0
ARC
  5
8E
330
1F
100
AcDbEntity
  8
SLD-0
  6
Continuous
 62
   179
370
    15
100
AcDbCircle
 10
0.4152592567
 20
0.4917300171
 30
0.0
 40
0.0025
100
AcDbArc
 50
0.0
 51
75.0252013719
  0
ARC
  5
8F
330
1F
100
AcDbEntity
  8
SLD-0
  6
Continuous
 62
   179
370
    15
100
AcDbCircle
 10
0.4241092567
 20
0.5248168725
 30
0.0
 40
0.0317500000019015
100
AcDbArc
 50
284.9747986281
 51
255.0252013738
  0
ARC
  5
90
330
1F
100
AcDbEntity
  8
SLD-0
  6
Continuous
 62
   179
370
    15
100
AcDbCircle
 10
0.4329592567
 20
0.4917300171
 30
0.0
 40
0.0025000000019016
100
AcDbArc
 50
104.9747986611
 51
180.0
  0
ARC
  5
91
330
1F
100
AcDbEntity
  8
SLD-0
  6
Continuous
 62
   179
370
    15
100
AcDbCircle
 10
0.4329592567
 20
0.3784728725
 30
0.0
 40
0.0025
100
AcDbArc
 50
180.0
 51
270.0
  0
ARC
  5
92
330
1F
100
AcDbEntity
  8
SLD-0
  6
Continuous
 62
   179
370
    15
100
AcDbCircle
 10
0.4311803244
 20
0.5248168725
 30
0.0
 40
0.0025
100
AcDbArc
 50
135.0
 51
225.0
  0
ARC
  5
93
330
1F
100
AcDbEntity
  8
SLD-0
  6
Continuous
 62
   179
370
    15
100
AcDbCircle
 10
0.4418892567
 20
0.5425968724
 30
0.0
 40
0.0024999999427719
100
AcDbArc
 50
314.9999997974
 51
134.9999997974
  0
ARC
  5
94
330
1F
100
AcDbEntity
  8
SLD-0
  6
Continuous
 62
   179
370
    15
100
AcDbCircle
 10
0.4241092567
 20
0.5318879402
 30
0.0
 40
0.0025
100
AcDbArc
 50
225.0
 51
315.0
  0
ARC
  5
95
330
1F
100
AcDbEntity
  8
SLD-0
  6
Continuous
 62
   179
370
    15
100
AcDbCircle
 10
0.4063292567
 20
0.5425968724
 30
0.0
 40
0.0024999999979025
100
AcDbArc
 50
44.9999983794
 51
225.0
  0
ARC
  5
96
330
1F
100
AcDbEntity
  8
SLD-0
  6
Continuous
 62
   179
370
    15
100
AcDbCircle
 10
0.4170381889
 20
0.5248168724
 30
0.0
 40
0.0024999999979025
100
AcDbArc
 50
315.0
 51
44.9999983794
  0
ARC
  5
97
330
1F
100
AcDbEntity
  8
SLD-0
  6
Continuous
 62
   179
370
    15
100
AcDbCircle
 10
0.4063292567
 20
0.5070368724
 30
0.0
 40
0.0024999999625472
100
AcDbArc
 50
135.0
 51
315.0
  0
ARC
  5
98
330
1F
100
AcDbEntity
  8
SLD-0
  6
Continuous
 62
   179
370
    15
100
AcDbCircle
 10
0.4241092567
 20
0.5177458047
 30
0.0
 40
0.0024999999625471
100
AcDbArc
 50
45.0
 51
135.0
  0
ARC
  5
99
330
1F
100
AcDbEntity
  8
SLD-0
  6
Continuous
 62
   179
370
    15
100
AcDbCircle
 10
0.4418892566
 20
0.5070368725
 30
0.0
 40
0.0024999999979026
100
AcDbArc
 50
225.0000016206
 51
45.0
  0
ARC
  5
9A
330
1F
100
AcDbEntity
  8
SLD-0
  6
Continuous
 62
   179
370
    15
100
AcDbCircle
 10
0.4374842567
 20
0.3734728725
 30
0.0
 40
0.0025
100
AcDbArc
 50
0.0
 51
90.0
  0
ARC
  5
9B
330
1F
100
AcDbEntity
  8
SLD-0
  6
Continuous
 62
   179
370
    15
100
AcDbCircle
 10
0.4374842567
 20
0.2768728725
 30
0.0
 40
0.0025
100
AcDbArc
 50
270.0
 51
0.0
  0
ARC
  5
9C
330
1F
100
AcDbEntity
  8
SLD-0
  6
Continuous
 62
   179
370
    15
100
AcDbCircle
 10
0.4107342567
 20
0.2768728725
 30
0.0
 40
0.0025
100
AcDbArc
 50
180.0
 51
270.0
  0
ARC
  5
9D
330
1F
100
AcDbEntity
  8
SLD-0
  6
Continuous
 62
   179
370
    15
100
AcDbCircle
 10
0.4107342567
 20
0.3734728725
 30
0.0
 40
0.0025
100
AcDbArc
 50
90.0
 51
180.0
  0
ENDSEC
  0
SECTION
  2
OBJECTS
  0
DICTIONARY
  5
C
330
0
100
AcDbDictionary
281
     1
  3
ACAD_GROUP
350
D
  3
ACAD_LAYOUT
350
1A
  3
ACAD_MLINESTYLE
350
17
  3
ACAD_PLOTSETTINGS
350
19
  3
ACAD_PLOTSTYLENAME
350
E
  0
DICTIONARY
  5
D
102
{ACAD_REACTORS
330
C
102
}
330
C
100
AcDbDictionary
281
     1
  0
DICTIONARY
  5
1A
102
{ACAD_REACTORS
330
C
102
}
330
C
100
AcDbDictionary
281
     1
  3
Layout1
350
1E
  3
Layout2
350
26
  3
Model
350
22
  0
DICTIONARY
  5
17
102
{ACAD_REACTORS
330
C
102
}
330
C
100
AcDbDictionary
281
     1
  3
Standard
350
18
  0
DICTIONARY
  5
19
102
{ACAD_REACTORS
330
C
102
}
330
C
100
AcDbDictionary
281
     1
  0
ACDBDICTIONARYWDFLT
  5
E
102
{ACAD_REACTORS
330
C
102
}
330
C
100
AcDbDictionary
281
     1
  3
Normal
350
F
100
AcDbDictionaryWithDefault
340
F
  0
LAYOUT
  5
1E
102
{ACAD_REACTORS
330
1A
102
}
330
1A
100
AcDbPlotSettings
  1

  2
none_device
  4

  6

 40
0.0
 41
0.0
 42
0.0
 43
0.0
 44
0.0
 45
0.0
 46
0.0
 47
0.0
 48
0.0
 49
0.0
140
0.0
141
0.0
142
1.0
143
1.0
 70
   688
 72
     0
 73
     0
 74
     5
  7

 75
    16
147
1.0
148
0.0
149
0.0
100
AcDbLayout
  1
Layout1
 70
     1
 71
     1
 10
0.0
 20
0.0
 11
420.0
 21
297.0
 12
0.0
 22
0.0
 32
0.0
 14
1.0000000000E+20
 24
1.0000000000E+20
 34
1.0000000000E+20
 15
-1.0000000000E+20
 25
-1.0000000000E+20
 35
-1.0000000000E+20
146
0.0
 13
0.0
 23
0.0
 33
0.0
 16
1.0
 26
0.0
 36
0.0
 17
0.0
 27
1.0
 37
0.0
 76
     0
330
1B
  0
LAYOUT
  5
26
102
{ACAD_REACTORS
330
1A
102
}
330
1A
100
AcDbPlotSettings
  1

  2
none_device
  4

  6

 40
0.0
 41
0.0
 42
0.0
 43
0.0
 44
0.0
 45
0.0
 46
0.0
 47
0.0
 48
0.0
 49
0.0
140
0.0
141
0.0
142
1.0
143
1.0
 70
   688
 72
     0
 73
     0
 74
     5
  7

 75
    16
147
1.0
148
0.0
149
0.0
100
AcDbLayout
  1
Layout2
 70
     1
 71
     2
 10
0.0
 20
0.0
 11
0.0
 21
0.0
 12
0.0
 22
0.0
 32
0.0
 14
0.0
 24
0.0
 34
0.0
 15
0.0
 25
0.0
 35
0.0
146
0.0
 13
0.0
 23
0.0
 33
0.0
 16
1.0
 26
0.0
 36
0.0
 17
0.0
 27
1.0
 37
0.0
 76
     0
330
23
  0
LAYOUT
  5
22
102
{ACAD_REACTORS
330
1A
102
}
330
1A
100
AcDbPlotSettings
  1

  2
none_device
  4

  6

 40
0.0
 41
0.0
 42
0.0
 43
0.0
 44
0.0
 45
0.0
 46
0.0
 47
0.0
 48
0.0
 49
0.0
140
0.0
141
0.0
142
1.0
143
1.0
 70
  1712
 72
     0
 73
     0
 74
     0
  7

 75
     0
147
1.0
148
0.0
149
0.0
100
AcDbLayout
  1
Model
 70
     1
 71
     0
 10
0.0
 20
0.0
 11
1.189
 21
0.841
 12
0.0
 22
0.0
 32
0.0
 14
0.0
 24
0.0
 34
0.0
 15
1.189
 25
0.841
 35
0.0
146
0.0
 13
0.0
 23
0.0
 33
0.0
 16
1.0
 26
0.0
 36
0.0
 17
0.0
 27
1.0
 37
0.0
 76
     0
330
1F
331
29
  0
MLINESTYLE
  5
18
102
{ACAD_REACTORS
330
17
102
}
330
17
100
AcDbMlineStyle
  2
Standard
 70
     0
  3

 62
   256
 51
90.0
 52
90.0
 71
     2
 49
0.5
 62
   256
  6
BYLAYER
 49
-0.5
 62
   256
  6
BYLAYER
  0
ACDBPLACEHOLDER
  5
F
102
{ACAD_REACTORS
330
E
102
}
330
E
  0
ENDSEC
  0
EOF
